<svg width="187" height="77" viewBox="0 0 187 77" fill="none" xmlns="http://www.w3.org/2000/svg">
<path d="M13.1839 33.5473V11.3963L13.1754 10.7588H11.9089V34.8223H36.3681V33.5473H13.1839Z" fill="white"/>
<path d="M59.5727 34.8223V56.7395L36.3677 68.9965L35.7345 69.328L35.352 69.1283L11.9005 56.7438V10.7588H11.909V34.8223H13.1755V55.9788L35.0927 67.5473V34.8223H36.3677V67.5558L58.2977 55.9745V34.8223H59.5727Z" fill="white"/>
<path d="M11.9095 10.3125V34.8222H36.3687V10.3125H11.9095ZM13.1845 33.5472V11.5875H35.0937V33.5472H13.1845Z" fill="white"/>
<path d="M36.3805 11.3963V34.8223H35.0927V10.7588H36.3677L36.3805 11.3963Z" fill="white"/>
<path d="M35.0927 10.3125V11.5875L35.105 33.5472V34.8222H59.5723V10.3125H35.0927ZM36.3805 33.5472V11.5875H58.2977V33.5472H36.3805Z" fill="white"/>
<path d="M24.9666 18.6513C21.1967 16.3009 19.2181 13.1942 18.1792 10.6435C17.6424 9.32549 17.3568 8.15632 17.2055 7.31801C17.1299 6.89898 17.0878 6.563 17.0648 6.33292C17.0644 6.32895 17.064 6.32502 17.0636 6.32112C17.1729 6.36906 17.3007 6.43794 17.4458 6.52763C17.7644 6.72458 18.1479 7.01005 18.5741 7.3589C19.4256 8.0558 20.4265 8.98828 21.3854 9.92501C22.3433 10.8609 23.2554 11.7972 23.9282 12.4998C24.2645 12.8511 24.5409 13.1437 24.7331 13.3485C24.8292 13.4509 24.9043 13.5313 24.9553 13.586L24.9666 13.5982V18.6513Z" fill="#4069D2" stroke="black" stroke-width="0.5"/>
<path d="M23.1769 19.1788C23.2774 19.2668 23.3555 19.3363 23.4085 19.3838V23.7317C19.1316 21.6925 16.642 19.2507 15.2184 17.31C14.4866 16.3124 14.0352 15.4456 13.7675 14.8312C13.6337 14.524 13.5457 14.28 13.4916 14.1143C13.4887 14.1052 13.4858 14.0963 13.483 14.0877C14.1812 13.9054 15.0838 14.0616 16.0973 14.4557C17.2079 14.8876 18.3989 15.5844 19.4987 16.3279C20.5968 17.0702 21.5951 17.8529 22.3195 18.4507C22.6815 18.7494 22.9746 19.0015 23.1769 19.1788ZM13.4187 13.8674L13.4187 13.8674L13.4187 13.8674Z" fill="#4069D2" stroke="black" stroke-width="0.5"/>
<path d="M12.3712 19.8143C13.2553 19.7182 14.2542 19.9339 15.2832 20.3426C16.4162 20.7926 17.5605 21.4664 18.5864 22.1696C19.6111 22.8719 20.5111 23.599 21.1553 24.1509C21.4771 24.4267 21.7347 24.6583 21.9114 24.8207C21.9908 24.8937 22.0539 24.9527 22.0992 24.9954C22.0589 25.6935 22.0903 27.4876 23.0395 29.1758C18.4426 27.3748 15.7728 25.0248 14.2451 23.1029C13.4423 22.0929 12.953 21.1987 12.6652 20.5604C12.5219 20.2425 12.4284 19.988 12.3712 19.8143Z" fill="#4069D2" stroke="black" stroke-width="0.5"/>
<mask id="path-9-inside-1" fill="white">
<path d="M11.9005 25.8921C11.9005 25.8921 14.238 35.1359 23.8353 36.4109C21.8523 34.0381 21.5335 31.7716 21.7817 30.8153C21.7817 30.8153 18.5942 26.6363 11.9005 25.7506"/>
</mask>
<path d="M11.9005 25.8921C11.9005 25.8921 14.238 35.1359 23.8353 36.4109C21.8523 34.0381 21.5335 31.7716 21.7817 30.8153C21.7817 30.8153 18.5942 26.6363 11.9005 25.7506" fill="#4069D2"/>
<path d="M23.8353 36.4109L23.7695 36.9065L25.0425 37.0757L24.219 36.0902L23.8353 36.4109ZM21.7817 30.8153L22.2657 30.941L22.3268 30.7055L22.1793 30.5121L21.7817 30.8153ZM11.9005 25.8921C11.4157 26.0147 11.4158 26.015 11.4158 26.0153C11.4159 26.0154 11.416 26.0157 11.416 26.016C11.4162 26.0166 11.4164 26.0173 11.4166 26.0182C11.417 26.0199 11.4176 26.0222 11.4184 26.025C11.4198 26.0307 11.4219 26.0386 11.4246 26.0486C11.43 26.0686 11.4379 26.0972 11.4483 26.1338C11.4693 26.2071 11.5008 26.3125 11.544 26.4459C11.6303 26.7125 11.7637 27.0914 11.9541 27.5486C12.3343 28.4619 12.944 29.6929 13.8635 30.9661C15.7059 33.5172 18.8011 36.2465 23.7695 36.9065L23.9011 35.9152C19.2722 35.3003 16.3999 32.7702 14.6742 30.3806C13.8097 29.1836 13.2352 28.0239 12.8772 27.1642C12.6985 26.7348 12.5743 26.3816 12.4953 26.1378C12.4558 26.0159 12.4277 25.9215 12.4098 25.8587C12.4008 25.8273 12.3943 25.8038 12.3903 25.7888C12.3883 25.7813 12.3868 25.7759 12.386 25.7726C12.3856 25.771 12.3853 25.77 12.3852 25.7694C12.3851 25.7692 12.3851 25.7691 12.3851 25.7691C12.3851 25.7691 12.3851 25.7692 12.3851 25.7692C12.3851 25.7694 12.3852 25.7696 11.9005 25.8921ZM24.219 36.0902C23.2693 34.9539 22.7269 33.8537 22.4505 32.9375C22.17 32.0081 22.1722 31.3009 22.2657 30.941L21.2977 30.6897C21.143 31.286 21.1805 32.1903 21.4931 33.2264C21.8097 34.2757 22.4183 35.495 23.4516 36.7315L24.219 36.0902ZM21.7817 30.8153C22.1793 30.5121 22.1791 30.5119 22.179 30.5117C22.1789 30.5116 22.1787 30.5114 22.1786 30.5112C22.1783 30.5108 22.178 30.5104 22.1776 30.5099C22.1768 30.5089 22.1759 30.5077 22.1747 30.5062C22.1724 30.5033 22.1694 30.4993 22.1655 30.4944C22.1577 30.4845 22.1468 30.4708 22.1327 30.4534C22.1046 30.4186 22.0637 30.3693 22.01 30.3071C21.9027 30.1829 21.7441 30.0076 21.5336 29.7959C21.1127 29.3728 20.4833 28.8034 19.64 28.2069C17.9524 27.0133 15.4069 25.7102 11.966 25.2549L11.8349 26.2463C15.0877 26.6767 17.4829 27.906 19.0625 29.0233C19.8528 29.5823 20.4386 30.113 20.8245 30.5011C21.0175 30.6951 21.1602 30.8532 21.2533 30.9609C21.2999 31.0148 21.334 31.0561 21.3558 31.083C21.3667 31.0964 21.3745 31.1063 21.3792 31.1123C21.3816 31.1153 21.3832 31.1173 21.384 31.1184C21.3844 31.1189 21.3846 31.1192 21.3846 31.1192C21.3847 31.1192 21.3846 31.1192 21.3845 31.1191C21.3845 31.119 21.3844 31.1189 21.3844 31.1189C21.3843 31.1187 21.3841 31.1186 21.7817 30.8153Z" fill="black" mask="url(#path-9-inside-1)"/>
<path d="M12.7667 34.2569C12.7499 34.2192 12.7347 34.1844 12.7209 34.1525C12.9371 34.1007 13.1947 34.0851 13.491 34.1059C13.9002 34.1346 14.3668 34.2314 14.87 34.3807C15.8765 34.6794 17.002 35.1797 18.0602 35.7232C19.1169 36.2658 20.0985 36.8473 20.8153 37.3037C21.1738 37.532 21.4642 37.7279 21.6637 37.871C21.7612 37.941 21.8341 37.9963 21.8818 38.0355C21.9131 38.5172 22.1607 40.3522 23.8681 42.5586C19.7883 42.1514 17.0132 40.0804 15.2366 38.0625C14.3065 37.006 13.6515 35.9653 13.2294 35.1892C13.0185 34.8013 12.866 34.4801 12.7667 34.2569Z" fill="#4069D2" stroke="black" stroke-width="0.5"/>
<mask id="path-12-inside-2" fill="white">
<path d="M14.7964 41.8904C14.7964 41.8904 16.5321 47.7699 25.4571 49.4699C23.0839 46.7788 22.5526 44.6172 22.8357 44.2985C22.8357 44.2985 18.8696 41.1467 14.7964 41.7136"/>
</mask>
<path d="M14.7964 41.8904C14.7964 41.8904 16.5321 47.7699 25.4571 49.4699C23.0839 46.7788 22.5526 44.6172 22.8357 44.2985C22.8357 44.2985 18.8696 41.1467 14.7964 41.7136" fill="#4069D2"/>
<path d="M25.4571 49.4699L25.3635 49.961L26.7978 50.2342L25.8321 49.1391L25.4571 49.4699ZM22.8357 44.2985L23.2096 44.6304L23.5602 44.2356L23.1468 43.907L22.8357 44.2985ZM14.7964 41.8904C14.3168 42.032 14.3169 42.0323 14.317 42.0327C14.3171 42.0328 14.3172 42.0332 14.3173 42.0335C14.3175 42.0341 14.3177 42.0347 14.3179 42.0355C14.3184 42.0371 14.3189 42.039 14.3196 42.0412C14.321 42.0457 14.3229 42.0516 14.3252 42.0589C14.3298 42.0735 14.3364 42.0936 14.345 42.1189C14.3623 42.1694 14.388 42.2407 14.4234 42.3302C14.4943 42.5093 14.6041 42.7617 14.764 43.0674C15.0837 43.6786 15.6038 44.5038 16.4121 45.3814C18.0338 47.142 20.7948 49.0908 25.3635 49.961L25.5506 48.9787C21.1943 48.1489 18.625 46.3079 17.1476 44.7039C16.4063 43.8991 15.9348 43.1482 15.6501 42.6039C15.5078 42.3318 15.4123 42.1116 15.3534 41.9625C15.3239 41.8879 15.3036 41.8313 15.2911 41.7948C15.2848 41.7766 15.2806 41.7635 15.2781 41.7557C15.2769 41.7518 15.2761 41.7493 15.2757 41.7481C15.2755 41.7475 15.2755 41.7473 15.2755 41.7474C15.2755 41.7475 15.2756 41.7476 15.2756 41.7479C15.2757 41.748 15.2757 41.7482 15.2758 41.7483C15.2758 41.7485 15.2759 41.7488 14.7964 41.8904ZM25.8321 49.1391C24.676 47.8281 23.9803 46.6592 23.6096 45.797C23.4235 45.3641 23.3244 45.0202 23.2857 44.7823C23.2661 44.6622 23.2646 44.5844 23.268 44.5434C23.2729 44.485 23.2821 44.5487 23.2096 44.6304L22.4618 43.9665C22.3185 44.1278 22.2824 44.3288 22.2715 44.4602C22.259 44.6089 22.2711 44.7734 22.2986 44.9428C22.3541 45.2838 22.483 45.7083 22.6909 46.192C23.1085 47.1631 23.865 48.4205 25.0821 49.8006L25.8321 49.1391ZM22.8357 44.2985C23.1468 43.907 23.1466 43.9069 23.1465 43.9068C23.1464 43.9067 23.1463 43.9066 23.1461 43.9065C23.1459 43.9063 23.1455 43.906 23.1451 43.9057C23.1443 43.9051 23.1433 43.9043 23.1421 43.9033C23.1395 43.9013 23.136 43.8985 23.1316 43.8951C23.1227 43.8881 23.11 43.8783 23.0936 43.8658C23.0609 43.8409 23.0135 43.8052 22.9523 43.7605C22.83 43.6711 22.6525 43.5454 22.4272 43.3972C21.9773 43.1011 21.3343 42.7127 20.5591 42.3423C19.0196 41.6067 16.9042 40.9154 14.7275 41.2184L14.8653 42.2088C16.7618 41.9449 18.666 42.546 20.1279 43.2446C20.8534 43.5912 21.4564 43.9554 21.8774 44.2325C22.0877 44.3709 22.2518 44.4871 22.3623 44.5678C22.4175 44.6082 22.4593 44.6396 22.4867 44.6606C22.5003 44.671 22.5104 44.6788 22.5168 44.6838C22.52 44.6863 22.5222 44.688 22.5235 44.6891C22.5242 44.6896 22.5246 44.6899 22.5248 44.69C22.5249 44.6901 22.5249 44.6901 22.5249 44.6901C22.5249 44.6901 22.5248 44.69 22.5248 44.69C22.5247 44.69 22.5246 44.6899 22.8357 44.2985Z" fill="black" mask="url(#path-12-inside-2)"/>
<path d="M15.8936 48.3978C17.9083 48.1716 19.8997 48.6901 21.4239 49.2912C22.2235 49.6066 22.8889 49.9424 23.3539 50.1992C23.5862 50.3275 23.7683 50.4359 23.8917 50.5118C23.9516 50.5487 23.9976 50.5779 24.0289 50.598L26.2146 54.4646C21.9322 53.9948 19.3386 52.4364 17.8102 50.9893C17.0163 50.2377 16.5061 49.5126 16.1953 48.9783C16.0584 48.7431 15.9603 48.5449 15.8936 48.3978Z" fill="#4069D2" stroke="black" stroke-width="0.5"/>
<path d="M19.8136 54.928C19.7294 54.7791 19.6632 54.6488 19.613 54.5429C21.6407 54.3846 23.5753 54.8912 25.0353 55.4599C25.8038 55.7592 26.4366 56.0741 26.8766 56.3138C27.0965 56.4336 27.268 56.5345 27.3839 56.605C27.3951 56.6118 27.4057 56.6183 27.4158 56.6245L27.4085 56.6593L27.2886 57.235C27.1946 57.6869 27.0645 58.3134 26.9111 59.0563C23.9689 58.8189 22.1228 57.6301 21.0076 56.499C20.4346 55.918 20.0522 55.3495 19.8136 54.928Z" fill="#4069D2" stroke="black" stroke-width="0.5"/>
<path d="M22.4244 61.5772C22.3696 61.5379 22.3202 61.5014 22.2765 61.4682C22.3496 61.4386 22.4345 61.4056 22.5296 61.37C22.8599 61.2464 23.3059 61.0948 23.7962 60.9522C24.6669 60.699 25.6407 60.4851 26.3564 60.4858C26.344 60.5368 26.33 60.5935 26.3146 60.6549C26.2444 60.9351 26.1453 61.3134 26.0294 61.7076C25.9132 62.1028 25.7814 62.5093 25.6462 62.8475C25.5786 63.0166 25.5116 63.1648 25.4471 63.2841C25.4239 63.327 25.402 63.3643 25.3815 63.3964C25.2324 63.3227 25.0164 63.2049 24.7567 63.0553C24.3847 62.841 23.9426 62.573 23.5221 62.3073C23.1011 62.0411 22.7052 61.7793 22.4244 61.5772Z" fill="#4069D2" stroke="black" stroke-width="0.5"/>
<path d="M27.5632 53.7232C27.5062 53.6443 27.4437 53.5549 27.3767 53.4568C27.1373 53.1058 26.8494 52.6556 26.5712 52.2097C26.2932 51.7642 26.0261 51.3252 25.8285 50.9974C25.8027 50.9547 25.7782 50.914 25.755 50.8753C26.145 50.944 26.6106 51.0837 27.0392 51.233C27.3411 51.3382 27.6136 51.4442 27.8107 51.5239C27.8627 51.545 27.9095 51.5641 27.95 51.581C27.9447 51.6141 27.9388 51.6509 27.9324 51.6911C27.9021 51.8789 27.8591 52.1396 27.8084 52.431C27.7368 52.8428 27.6505 53.3121 27.5632 53.7232Z" fill="#4069D2" stroke="black" stroke-width="0.5"/>
<path d="M23.8858 44.3235L28.2267 46.3195C28.2269 46.3786 28.2269 46.4533 28.2265 46.5415C28.2253 46.7819 28.2209 47.1225 28.2076 47.5225C28.184 48.2353 28.1327 49.1319 28.0235 49.9847C25.9068 49.0791 24.8728 47.6104 24.3639 46.3484C24.0969 45.6863 23.9739 45.0793 23.9179 44.6385C23.9029 44.5207 23.8927 44.415 23.8858 44.3235Z" fill="#4069D2" stroke="black" stroke-width="0.5"/>
<path d="M23.2282 37.9034L28.4016 40.5057C28.4012 40.5664 28.4005 40.6443 28.3995 40.7377C28.3968 40.9857 28.3913 41.3431 28.3804 41.7801C28.3607 42.5702 28.3231 43.6196 28.2517 44.7521C26.1486 43.7126 24.8769 41.9484 24.1237 40.3978C23.7285 39.5843 23.4785 38.8344 23.3275 38.2883C23.2878 38.1449 23.255 38.0158 23.2282 37.9034Z" fill="#4069D2" stroke="black" stroke-width="0.5"/>
<path d="M23.3052 31.2943L28.4045 34.4051C28.4053 34.4599 28.4062 34.5307 28.4073 34.6168C28.4101 34.8448 28.4134 35.1796 28.4156 35.6062C28.4197 36.3917 28.4201 37.4884 28.4062 38.8029C25.969 37.9102 24.6876 35.9951 24.0113 34.2483C23.6586 33.3375 23.4732 32.4783 23.376 31.8465C23.3434 31.6341 23.3208 31.4478 23.3052 31.2943Z" fill="#4069D2" stroke="black" stroke-width="0.5"/>
<path d="M23.3962 25.8529L28.9892 29.7955C28.984 29.8427 28.9777 29.9005 28.9706 29.968C28.9489 30.1723 28.9189 30.4656 28.8856 30.8222C28.8275 31.4442 28.7591 32.2595 28.7072 33.1308C25.7946 31.5927 24.4743 29.6904 23.8782 28.169C23.5676 27.3765 23.4515 26.6818 23.4127 26.1876C23.4029 26.0626 23.398 25.9504 23.3962 25.8529Z" fill="#4069D2" stroke="black" stroke-width="0.5"/>
<path d="M30.9924 26.3675C30.6689 26.8295 30.2054 27.4898 29.6239 28.3141C26.2774 26.791 25.0506 24.6306 24.6472 22.8594C24.4403 21.9511 24.4481 21.1359 24.5079 20.5478C24.5299 20.3307 24.559 20.1451 24.5867 19.9979L31.3936 25.7935L31.3872 25.8025C31.2977 25.9309 31.1649 26.121 30.9924 26.3675Z" fill="#4069D2" stroke="black" stroke-width="0.5"/>
<path d="M26.45 19.0427V14.6803C26.5213 14.7148 26.6078 14.7654 26.7097 14.8338C26.9944 15.025 27.3591 15.3285 27.7794 15.7152C28.6179 16.4865 29.6487 17.5616 30.6532 18.656C31.6567 19.7492 32.63 20.8574 33.3526 21.6925C33.7139 22.11 34.0124 22.4591 34.2205 22.7037C34.2923 22.7881 34.3534 22.8601 34.4025 22.9182C34.3297 22.9953 34.2288 23.1019 34.0957 23.2422C33.7854 23.5692 33.3001 24.0793 32.5869 24.8251C30.3466 23.8532 28.8151 22.4152 27.8385 21.2083C27.3389 20.5909 26.9853 20.0349 26.7573 19.6347C26.6433 19.4346 26.5608 19.2737 26.5071 19.1636C26.4817 19.1114 26.4627 19.0707 26.45 19.0427Z" fill="#4069D2" stroke="black" stroke-width="0.5"/>
<path d="M42.3441 65.732C42.3851 65.7221 42.4278 65.7119 42.4721 65.7013C42.8897 65.6018 43.446 65.4737 44.0028 65.3587C44.5614 65.2433 45.1135 65.1425 45.5253 65.096C45.7336 65.0725 45.8926 65.0646 45.9946 65.0717C45.9977 65.072 46.0007 65.0722 46.0036 65.0724C46.012 65.0934 46.021 65.1127 46.0293 65.1297C46.0576 65.1881 46.0955 65.2534 46.1396 65.3231C46.228 65.4629 46.3517 65.6362 46.5016 65.8331C46.802 66.228 47.2184 66.7321 47.6959 67.2809C48.4219 68.1152 49.2949 69.0593 50.1267 69.8885C48.6955 69.3551 46.9067 68.4182 45.3464 67.5307C44.3757 66.9785 43.5018 66.4503 42.8705 66.0602C42.6685 65.9354 42.4915 65.8247 42.3441 65.732Z" fill="#4069D2" stroke="black" stroke-width="0.5"/>
<path d="M55.4803 5.9928C55.4803 5.9928 51.1772 8.08125 46.9803 13.3937C47.0866 18.8125 46.9803 19.2375 46.9803 19.2375C46.9803 19.2375 54.7897 14.5289 55.4803 5.9928Z" fill="white" stroke="black" stroke-width="0.5" stroke-miterlimit="10"/>
<path d="M45.9179 14.1906L38.9585 20.6187C38.9585 20.6187 38.0022 20.9375 38.2679 26.5687C39.8616 24.8687 40.7116 24.2312 41.5616 23.7531C42.4116 23.275 45.8116 20.9375 45.9179 18.6531C46.0241 16.3687 45.9179 14.1906 45.9179 14.1906Z" fill="white" stroke="black" stroke-width="0.5" stroke-miterlimit="10"/>
<path d="M59.1991 13.6594C59.1991 13.6594 54.5773 13.1281 48.6273 19.2375V24.125C48.6273 24.125 58.0835 19.2906 59.1991 13.6594Z" fill="white" stroke="black" stroke-width="0.5" stroke-miterlimit="10"/>
<path d="M60.2616 19.5031C60.2616 19.5031 56.4898 18.7594 50.1679 24.55C49.796 27.1 48.9991 29.0656 48.6273 29.4375C48.6273 29.4375 58.6679 25.9312 60.2616 19.5031Z" fill="white" stroke="black" stroke-width="0.5" stroke-miterlimit="10"/>
<path d="M47.9898 19.4721C47.9898 19.4721 43.9523 23.7 42.996 24.125C42.0398 24.55 40.1273 25.6125 39.4898 28.3219C39.2773 30.1813 39.4898 31.1375 39.4898 31.1375C39.4898 31.1375 43.7398 27.6313 44.8023 26.9938C45.8648 26.3563 48.5741 23.8505 47.9898 19.4721Z" fill="white" stroke="black" stroke-width="0.5" stroke-miterlimit="10"/>
<path d="M49.0522 25.0812C49.0522 25.0812 41.5616 31.2969 40.9241 31.5094C40.9241 31.5094 39.1412 32.625 39.395 36.5562C39.395 36.5562 43.4473 33.4219 44.6429 32.4656C45.971 31.4031 49.4772 28.8531 49.0522 25.0812Z" fill="white" stroke="black" stroke-width="0.5" stroke-miterlimit="10"/>
<path d="M37.5773 22.7437C37.5773 22.7437 31.6804 27.0205 31.0692 28.8268C30.2724 30.6067 30.5112 35.9986 30.5112 35.9986C30.5112 35.9986 34.6018 31.2841 34.9916 30.8187C35.8059 30.0346 38.1187 27.0464 37.5879 22.6902" fill="white"/>
<path d="M37.5773 22.7437C37.5773 22.7437 31.6804 27.0205 31.0692 28.8268C30.2724 30.6067 30.5112 35.9986 30.5112 35.9986C30.5112 35.9986 34.6018 31.2841 34.9916 30.8187C35.8059 30.0346 38.1187 27.0464 37.5879 22.6902" stroke="black" stroke-width="0.5" stroke-miterlimit="10"/>
<path d="M38.6971 28.1625C38.6971 28.1625 31.9162 34.8711 30.8537 36.8899C30.4287 38.5368 30.3416 41.3524 30.3416 41.3524C30.3416 41.3524 32.4394 39.0149 33.9307 37.8461C33.9307 37.8461 38.6971 33.0934 38.6971 28.8795C38.6971 28.4813 38.6971 28.5603 38.6971 28.1625Z" fill="white" stroke="black" stroke-width="0.5" stroke-miterlimit="10"/>
<path d="M38.6928 33.2625C38.6928 33.2625 33.3803 40.5406 31.946 41.0188C30.5116 41.4969 30.1397 46.9688 30.1397 46.9688C30.1397 46.9688 32.0522 43.8344 34.4165 41.8156C36.7808 39.7969 38.7991 35.6531 38.6928 33.2625Z" fill="white" stroke="black" stroke-width="0.5" stroke-miterlimit="10"/>
<path d="M60.2616 25.825C60.2616 25.825 55.1616 25.2938 50.5398 30.8188C50.3273 33.8469 49.0523 35.9719 48.6273 36.5563C48.6273 36.5563 58.0304 34.9094 60.2616 25.825Z" fill="white" stroke="black" stroke-width="0.5" stroke-miterlimit="10"/>
<path d="M49.371 30.8188C49.371 30.8188 50.5665 37.1704 39.3703 41.3524C39.3703 41.3524 40.6053 38.7344 40.9772 36.5563C40.9772 36.5563 45.0678 32.4125 49.371 30.8188Z" fill="white" stroke="black" stroke-width="0.5" stroke-miterlimit="10"/>
<path d="M39.3703 37.6719C39.3703 37.6719 34.5491 43.5688 33.8053 43.8875C33.1678 44.7375 30.3522 47.1281 30.1397 48.0313C30.2991 48.9875 30.1397 50.3156 30.1397 50.3156C30.1397 50.3156 39.8879 42.6125 39.3703 37.6719Z" fill="white" stroke="black" stroke-width="0.5" stroke-miterlimit="10"/>
<path d="M29.2897 54.0344C29.2897 54.0344 29.7679 51.4312 31.3085 49.9969C32.8491 48.5625 39.395 43.0375 39.395 43.0375C39.395 43.0375 39.4562 46.1187 37.6665 47.6062C35.8772 49.0937 29.8741 53.6094 29.2897 54.0344Z" fill="white" stroke="black" stroke-width="0.5" stroke-miterlimit="10"/>
<path d="M47.7241 42.7188C47.7241 42.7188 50.2741 40.0625 50.221 37.6719C50.221 37.6719 55.4272 33.9 59.8366 33.7406C59.8366 33.7406 57.6054 42.1875 47.7241 42.7188Z" fill="white" stroke="black" stroke-width="0.5" stroke-miterlimit="10"/>
<path d="M49.408 37.2469C49.408 37.2469 42.5179 40.8891 41.5616 41.3524C39.7553 43.5687 39.3703 46.7031 39.3703 46.7031C39.3703 46.7031 48.3293 44.5781 49.408 37.2469Z" fill="white" stroke="black" stroke-width="0.5" stroke-miterlimit="10"/>
<path d="M57.3929 41.6031C57.3929 41.6031 52.3668 41.1781 49.408 44.3125C49.2648 47.2875 46.8741 49.0937 46.8741 49.0937C46.8741 49.0937 55.6929 48.4031 57.3929 41.6031Z" fill="white" stroke="black" stroke-width="0.5" stroke-miterlimit="10"/>
<path d="M48.6272 43.675C48.6272 43.675 40.9241 47.3937 40.7116 47.7125C40.4991 48.0312 38.4272 52.1219 38.4272 52.1219C38.4272 52.1219 43.8991 50.8469 45.8116 49.0937C48.1223 47.1018 48.8397 45.0031 48.6272 43.675Z" fill="white" stroke="black" stroke-width="0.5" stroke-miterlimit="10"/>
<path d="M39.6755 47.7656C39.6755 47.7656 30.7768 53.2375 29.2893 54.8844C28.9969 56.5321 28.9706 58.3647 28.9706 58.3647C28.9706 58.3647 38.9317 52.8924 39.6755 47.7656Z" fill="white" stroke="black" stroke-width="0.5" stroke-miterlimit="10"/>
<path d="M56.7023 47.8987C56.7023 47.8987 55.8523 53.5567 45.546 54.7254C46.9804 51.6973 48.2554 50.3161 48.2554 50.3161C48.2554 50.3161 50.9116 48.1906 56.7023 47.8987Z" fill="white" stroke="black" stroke-width="0.5" stroke-miterlimit="10"/>
<path d="M46.8742 50.3156C46.8742 50.3156 40.3661 52.0424 39.6755 52.8656C38.5599 53.5031 36.9925 57.1165 36.9925 57.1165C39.1706 55.7875 43.7394 55.0705 43.7394 55.0705C44.9085 54.1937 46.8742 50.3156 46.8742 50.3156Z" fill="white" stroke="black" stroke-width="0.5" stroke-miterlimit="10"/>
<path d="M38.0375 54.0344C38.0375 54.0344 30.671 57.2053 28.4754 59.6839C27.5897 61.154 27.7759 62.1897 27.7759 62.1897C27.7759 62.1897 35.5572 60.0111 38.0375 54.0344Z" fill="white" stroke="black" stroke-width="0.5" stroke-miterlimit="10"/>
<path d="M53.0881 54.0344C53.0881 54.0344 51.5916 58.9784 44.3887 59.3328C46.2881 57.3141 46.8741 55.2596 46.8741 55.2596C47.9575 54.3391 51.7778 54.1189 53.0881 54.0344Z" fill="white" stroke="black" stroke-width="0.5" stroke-miterlimit="10"/>
<path d="M46.0399 55.507C46.0399 55.507 38.9245 57.031 38.0375 57.8105C37.1153 58.8373 35.5921 61.8123 35.5921 61.8123L42.8524 59.581C42.8524 59.581 45.3667 57.456 46.0399 55.507Z" fill="white" stroke="black" stroke-width="0.5" stroke-miterlimit="10"/>
<path d="M41.6483 64.4401L44.3887 60.2606C44.3887 60.2606 48.0233 59.5169 50.5733 61.2526C48.3421 62.8463 46.1108 64.0151 46.1108 64.0151C44.7296 65.2195 41.6483 64.4401 41.6483 64.4401Z" fill="white" stroke="black" stroke-width="0.5" stroke-miterlimit="10"/>
<path d="M43.1779 60.4757C43.1779 60.4757 41.7609 63.84 40.3797 64.123C38.9984 64.4069 35.7757 63.84 34.5359 62.8837C36.4841 61.998 40.6636 60.44 43.1779 60.4757Z" fill="white" stroke="black" stroke-width="0.5" stroke-miterlimit="10"/>
<path d="M36.6614 58.6605C36.6614 58.6605 31.096 68.4678 21.2505 69.8839C21.2505 69.8839 25.6416 66.7669 27.0585 63.2258C27.0585 63.2258 34.5547 59.8849 36.6614 58.6605Z" fill="white" stroke="black" stroke-width="0.5" stroke-miterlimit="10"/>
<line x1="71.5" x2="71.5" y2="77" stroke="white"/>
<path d="M85.3086 28.3506L84.2715 20.5811H84.2363L83.2871 28.3506H85.3086ZM80.457 33L82.6631 17.5312H85.7744L88.1211 33H85.9238L85.5547 30.2402H83.0586L82.7246 33H80.457ZM90.3535 33V19.5703H88.543V17.5312H94.4404V19.5703H92.7002V33H90.3535ZM96.541 33V19.5703H94.7305V17.5312H100.628V19.5703H98.8877V33H96.541ZM106.086 28.3506L105.049 20.5811H105.014L104.064 28.3506H106.086ZM101.234 33L103.44 17.5312H106.552L108.898 33H106.701L106.332 30.2402H103.836L103.502 33H101.234ZM116.993 28.7812C116.993 30.2754 116.727 31.3828 116.193 32.1035C115.66 32.8184 114.822 33.1758 113.68 33.1758C112.537 33.1758 111.682 32.7949 111.113 32.0332C110.551 31.2656 110.27 30.1641 110.27 28.7285V21.9873C110.27 19.6846 110.873 18.2461 112.08 17.6719C112.525 17.4609 113.064 17.3555 113.697 17.3555C115.871 17.3555 116.958 18.7266 116.958 21.4688V23.5957H114.682V21.6182C114.682 20.8213 114.614 20.2529 114.479 19.9131C114.345 19.5674 114.081 19.3945 113.688 19.3945C113.296 19.3945 113.023 19.5762 112.871 19.9395C112.719 20.3027 112.643 20.8594 112.643 21.6094V28.834C112.643 29.666 112.716 30.2607 112.862 30.6182C113.009 30.9756 113.275 31.1543 113.662 31.1543C114.049 31.1543 114.315 30.9727 114.462 30.6094C114.608 30.2461 114.682 29.6455 114.682 28.8076V26.5928H116.993V28.7812ZM118.918 33V17.5312H121.273V24.6504L123.629 17.5312H126.063L123.497 25.1602L126.266 33H123.778L121.291 25.7754V33H118.918ZM132.857 28.7021C132.857 29.6104 132.925 30.2432 133.06 30.6006C133.2 30.958 133.484 31.1367 133.912 31.1367C134.34 31.1367 134.621 30.9551 134.756 30.5918C134.891 30.2227 134.958 29.5928 134.958 28.7021V21.4951C134.958 20.7627 134.888 20.2295 134.747 19.8955C134.612 19.5557 134.343 19.3857 133.938 19.3857C133.54 19.3857 133.259 19.5557 133.095 19.8955C132.937 20.2295 132.857 20.7598 132.857 21.4863V28.7021ZM137.322 28.6758C137.322 30.1875 137.053 31.3154 136.514 32.0596C135.975 32.8037 135.11 33.1758 133.921 33.1758C132.737 33.1758 131.867 32.8037 131.311 32.0596C130.76 31.3096 130.484 30.1816 130.484 28.6758V21.6006C130.484 18.7646 131.642 17.3467 133.956 17.3467C135.151 17.3467 136.01 17.707 136.531 18.4277C137.059 19.1484 137.322 20.2061 137.322 21.6006V28.6758ZM139.467 33V17.5312H141.312L144.591 26.8125L144.424 22.5938V17.5312H146.542V33H144.872L141.506 23.3936L141.638 27.4541V33H139.467ZM152.896 33V19.5703H151.086V17.5312H156.983V19.5703H155.243V33H152.896ZM158.381 33V17.5312H160.736V33H158.381ZM163.936 33V19.5703H162.125V17.5312H168.022V19.5703H166.282V33H163.936ZM173.48 28.3506L172.443 20.5811H172.408L171.459 28.3506H173.48ZM168.629 33L170.835 17.5312H173.946L176.293 33H174.096L173.727 30.2402H171.23L170.896 33H168.629ZM177.91 33V17.5312H179.756L183.034 26.8125L182.867 22.5938V17.5312H184.985V33H183.315L179.949 23.3936L180.081 27.4541V33H177.91ZM83.3398 54.7021C83.3398 55.6104 83.4072 56.2432 83.542 56.6006C83.6826 56.958 83.9668 57.1367 84.3945 57.1367C84.8223 57.1367 85.1035 56.9551 85.2383 56.5918C85.373 56.2227 85.4404 55.5928 85.4404 54.7021V47.4951C85.4404 46.7627 85.3701 46.2295 85.2295 45.8955C85.0947 45.5557 84.8252 45.3857 84.4209 45.3857C84.0225 45.3857 83.7412 45.5557 83.5771 45.8955C83.4189 46.2295 83.3398 46.7598 83.3398 47.4863V54.7021ZM87.8047 54.6758C87.8047 56.1875 87.5352 57.3154 86.9961 58.0596C86.457 58.8037 85.5928 59.1758 84.4033 59.1758C83.2197 59.1758 82.3496 58.8037 81.793 58.0596C81.2422 57.3096 80.9668 56.1816 80.9668 54.6758V47.6006C80.9668 44.7646 82.124 43.3467 84.4385 43.3467C85.6338 43.3467 86.4922 43.707 87.0137 44.4277C87.541 45.1484 87.8047 46.2061 87.8047 47.6006V54.6758ZM89.9404 59V43.5312H95.249V45.5791H92.2959V49.6924H95.0381V51.749H92.2959V59H89.9404ZM96.9365 59V43.5312H102.245V45.5791H99.292V49.6924H102.034V51.749H99.292V59H96.9365ZM104.029 59V43.5312H106.385V59H104.029ZM115.323 54.7812C115.323 56.2754 115.057 57.3828 114.523 58.1035C113.99 58.8184 113.152 59.1758 112.01 59.1758C110.867 59.1758 110.012 58.7949 109.443 58.0332C108.881 57.2656 108.6 56.1641 108.6 54.7285V47.9873C108.6 45.6846 109.203 44.2461 110.41 43.6719C110.855 43.4609 111.395 43.3555 112.027 43.3555C114.201 43.3555 115.288 44.7266 115.288 47.4688V49.5957H113.012V47.6182C113.012 46.8213 112.944 46.2529 112.81 45.9131C112.675 45.5674 112.411 45.3945 112.019 45.3945C111.626 45.3945 111.354 45.5762 111.201 45.9395C111.049 46.3027 110.973 46.8594 110.973 47.6094V54.834C110.973 55.666 111.046 56.2607 111.192 56.6182C111.339 56.9756 111.605 57.1543 111.992 57.1543C112.379 57.1543 112.646 56.9727 112.792 56.6094C112.938 56.2461 113.012 55.6455 113.012 54.8076V52.5928H115.323V54.7812ZM117.336 59V43.5312H119.691V59H117.336ZM126.248 54.3506L125.211 46.5811H125.176L124.227 54.3506H126.248ZM121.396 59L123.603 43.5312H126.714L129.061 59H126.863L126.494 56.2402H123.998L123.664 59H121.396ZM130.678 59V43.5312H133.033V56.9961H136.013V59H130.678Z" fill="white"/>
</svg>
